<svg xmlns="http://www.w3.org/2000/svg" width="20.933" height="20.932" viewBox="0 0 20.933 20.932"><defs><style>.a{fill:#055ba6;}</style></defs><g transform="translate(-5 -5)"><path class="a" d="M15.9,9.623A1.54,1.54,0,0,1,17.37,8.489a.93.93,0,0,1,.975,1.148,1.54,1.54,0,0,1-1.471,1.135A.93.93,0,0,1,15.9,9.623Zm2.308,10.3c-1.208.7-2.275.81-2.017-.381l1.36-6.256c.272-1.25-1.194-1.566-2.508-.9a8.317,8.317,0,0,0-2.47,1.991.121.121,0,0,0,.152.184c1.208-.7,2.275-.81,2.017.381L13.382,21.2c-.272,1.25,1.194,1.566,2.508.9a8.318,8.318,0,0,0,2.47-1.991.121.121,0,0,0-.152-.184Zm7.725-4.461A10.466,10.466,0,1,1,15.466,5,10.466,10.466,0,0,1,25.933,15.466Zm-1.163,0a9.3,9.3,0,1,0-9.3,9.3,9.3,9.3,0,0,0,9.3-9.3Z"/></g></svg>